<svg width="61" height="60" viewBox="0 0 61 60" fill="none" xmlns="http://www.w3.org/2000/svg">
<rect x="0.5" width="60" height="60" rx="12" fill="#FFB731"/>
<path fill-rule="evenodd" clip-rule="evenodd" d="M29.9 9.0075L12.5 19.0575V39.135L29.9 49.185L47.3 39.135V19.0575L29.9 9V9.0075Z" fill="#221F20"/>
<path fill-rule="evenodd" clip-rule="evenodd" d="M15.9497 37.1461L29.8997 45.1936L43.8347 37.1461V21.0436L29.8997 12.9961L15.9497 21.0436V37.1461Z" fill="#FEFEFE"/>
<path fill-rule="evenodd" clip-rule="evenodd" d="M27.6951 34.2159L26.3901 31.2159L25.3626 32.4009L24.3576 31.5309L26.7801 28.7559L28.9176 33.6909L27.7026 34.2159H27.6951ZM21.5151 31.0359L20.2101 28.0359L19.1826 29.2134L18.1851 28.3434L20.6001 25.5684L22.7301 30.5184L21.5151 31.0434V31.0359Z" fill="#221F20"/>
</svg>
